<svg width="55" height="60" viewBox="0 0 55 60" fill="none" xmlns="http://www.w3.org/2000/svg">
<path d="M30.6756 54.14C29.0558 55.0359 27.4144 55.7847 25.702 56.4833L26.7597 59.1159C28.5675 58.3914 30.342 57.5669 32.0465 56.6245L30.6756 54.14ZM17.0169 27.6545C15.5237 27.6545 13.9256 28.2276 12.7795 29.3733C11.6338 30.5197 11.0607 32.0046 11.0607 33.6104C11.0607 35.2168 11.6338 36.7017 12.7795 37.8478C15.0716 40.1402 18.9622 40.1402 21.2543 37.8478C22.4 36.7017 22.9731 35.2168 22.9731 33.6104C22.9731 32.0042 22.4 30.5197 21.2543 29.3733C20.1082 28.3408 18.5101 27.6545 17.0169 27.6545ZM28.3642 22.3767C22.0612 16.0734 11.9722 16.0734 5.66928 22.3767C2.69153 25.3621 0.972168 29.4869 0.972168 33.7236C0.972168 37.969 2.6912 42.0935 5.66928 45.0712L17.0165 56.4185L28.3639 45.0712C31.3416 42.0935 33.061 37.969 33.061 33.7236C33.061 29.4872 31.342 25.3624 28.3639 22.3767H28.3642ZM22.8598 39.5672C21.254 41.173 19.0824 41.9799 17.0165 41.9799C14.951 41.9799 12.7792 41.173 11.1734 39.5672C9.56724 37.969 8.76799 35.9028 8.76799 33.7236C8.76799 31.5451 9.68019 29.3736 11.1734 27.8804C14.3777 24.6688 19.6555 24.6688 22.9724 27.8804C24.5782 29.4869 25.3858 31.5448 25.3858 33.7236C25.3858 35.9028 24.4656 38.082 22.8595 39.5672H22.8598ZM44.1398 7.2315C43.1855 7.2315 42.164 7.59791 41.4312 8.33039C40.6987 9.06287 40.3326 10.0123 40.3326 11.0391C40.3326 12.0659 40.6991 13.0149 41.4312 13.7477C42.8965 15.213 45.3833 15.213 46.8486 13.7477C47.581 13.0153 47.9471 12.0659 47.9471 11.0391C47.9471 10.0123 47.5807 9.0632 46.8486 8.33039C46.1161 7.67033 45.0946 7.2315 44.1398 7.2315ZM51.3936 3.85778C47.3645 -0.171345 40.9156 -0.171345 36.8865 3.85778C34.9827 5.76622 33.8839 8.40314 33.8839 11.1112C33.8839 13.8248 34.9827 16.4614 36.8865 18.3652L44.1402 25.6189L51.3939 18.3652C53.2977 16.4614 54.3966 13.8251 54.3966 11.1112C54.3966 8.40314 53.2977 5.76622 51.3939 3.85778H51.3936ZM47.875 14.8466C46.8486 15.8728 45.4606 16.3886 44.1398 16.3886C42.8194 16.3886 41.4312 15.8728 40.4047 14.8466C39.3783 13.8248 38.8674 12.5044 38.8674 11.1112C38.8674 9.71861 39.4503 8.33039 40.4047 7.37634C42.453 5.32307 45.8271 5.32307 47.9471 7.37634C48.9736 8.40314 49.4898 9.71861 49.4898 11.1112C49.4898 12.5044 48.9015 13.8972 47.875 14.8466ZM42.2763 29.0693C41.6013 29.562 41.0964 30.1466 40.711 30.8884L43.2373 32.1806C43.3725 31.8836 43.6648 31.5657 43.9289 31.3761L42.2763 29.0693ZM39.9251 34.2146C39.8503 36.1805 40.138 38.1052 40.3193 40.0562L40.32 40.0592L43.1459 39.809C43.1037 39.132 43.0025 38.4211 42.9344 37.7421C42.8154 36.611 42.7161 35.4789 42.7596 34.3412L39.9251 34.2146ZM40.4067 42.6649C40.3835 43.0024 40.3433 43.3209 40.2642 43.6501C39.9287 44.9643 39.4062 46.121 38.6734 47.26L41.0528 48.8057C41.9564 47.4059 42.6065 45.9529 43.0171 44.3364C43.1367 43.8511 43.2024 43.3671 43.2366 42.8692L40.4067 42.6642V42.6649ZM37.0762 49.3077C35.9258 50.573 34.4273 51.7911 32.9982 52.7282L34.5712 55.0901C36.2238 53.9729 37.8193 52.708 39.1643 51.2287L37.0759 49.3077H37.0762Z" fill="#3498DB"/>
</svg>
