<svg width="46" height="45" viewBox="0 0 46 45" fill="none" xmlns="http://www.w3.org/2000/svg">
<path d="M32.1999 1.57176e-05C30.7217 -0.0030165 29.2759 0.432743 28.0456 1.2521C26.8152 2.07145 25.8557 3.23753 25.2886 4.60263C24.7216 5.96773 24.5724 7.47043 24.86 8.92038C25.1477 10.3703 25.8592 11.7023 26.9044 12.7475C27.9497 13.7928 29.2816 14.5043 30.7316 14.7919C32.1815 15.0796 33.6842 14.9304 35.0493 14.3633C36.4144 13.7962 37.5805 12.8367 38.3999 11.6064C39.2192 10.3761 39.655 8.93022 39.6519 7.45202C39.6479 5.47687 38.8615 3.58378 37.4648 2.18713C36.0682 0.790487 34.1751 0.00406732 32.1999 1.57176e-05Z" fill="#3498DB"/>
<path d="M3.71067 19.3662H0V44.5895H3.71067V19.3662Z" fill="#3498DB"/>
<path d="M17.4493 20.7615L17.7253 20.9608C18.0933 21.2368 18.4153 21.4668 18.7373 21.6662L19.0133 21.8195C19.5036 22.1168 20.0652 22.2758 20.6386 22.2795H22.172C22.5651 22.2542 22.9595 22.2542 23.3526 22.2795H23.5826C25.1414 22.5113 26.6144 23.1396 27.8606 24.1042C28.5203 22.2717 28.4349 20.2537 27.6226 18.4836C26.8104 16.7135 25.3362 15.3326 23.5168 14.6378C21.6974 13.943 19.678 13.9896 17.8926 14.7677C16.1072 15.5457 14.6983 16.9931 13.9686 18.7988C14.1833 18.7988 14.4133 18.9062 14.628 18.9982C15.6451 19.4532 16.5945 20.0466 17.4493 20.7615Z" fill="#3498DB"/>
<path d="M44.988 25.5759C44.3288 25.0872 43.5384 24.807 42.7186 24.7715C41.8987 24.7359 41.087 24.9467 40.388 25.3765L31.97 30.4519H13.8V28.9185H27.8913C27.4975 28.0938 26.9331 27.3621 26.2353 26.7719C25.3652 26.0241 24.3027 25.5353 23.1687 25.3612C22.8471 25.3372 22.5242 25.3372 22.2027 25.3612H20.6693C19.5913 25.3504 18.5346 25.0598 17.6027 24.5179C16.9936 24.1706 16.4095 23.7812 15.8547 23.3525C15.1387 22.7844 14.3497 22.3151 13.5087 21.9572C13.0242 21.7503 12.5021 21.6459 11.9753 21.6505H6.77734V42.0132H23C26.6298 42.0067 30.1576 40.811 33.0433 38.6092L44.9573 29.5165C45.2791 29.2967 45.5423 29.0016 45.724 28.6569C45.9057 28.3121 46.0005 27.9282 46 27.5385C45.9953 27.1553 45.9013 26.7784 45.7257 26.4377C45.55 26.0971 45.2975 25.802 44.988 25.5759Z" fill="#3498DB"/>
</svg>
