<svg width="46" height="56" viewBox="0 0 46 56" fill="none" xmlns="http://www.w3.org/2000/svg">
<path fill-rule="evenodd" clip-rule="evenodd" d="M14.1566 0C10.8446 0 8.41443 3.11253 9.21773 6.32563L9.94076 9.21778C10.0824 9.78435 10.5915 10.1818 11.1755 10.1818H34.6426C35.2265 10.1818 35.7356 9.78435 35.8774 9.21778L36.6003 6.32563C37.4037 3.11253 34.9735 0 31.6614 0H14.1566ZM11.4545 15.2727C10.7516 15.2727 10.1751 15.8442 10.2445 16.5437C10.8822 22.976 16.309 28 22.9091 28C29.5092 28 34.9359 22.976 35.5737 16.5437C35.643 15.8442 35.0664 15.2727 34.3636 15.2727H11.4545ZM16.6775 30.5813C7.36833 31.1696 0 38.906 0 48.3636C0 52.5809 3.41893 56 7.63636 56H38.1818C42.3994 56 45.8182 52.5809 45.8182 48.3636C45.8182 38.906 38.4499 31.1696 29.1406 30.5813C28.4164 30.5355 27.7238 30.855 27.2409 31.3964L23.8588 35.2108C23.6058 35.4943 23.2576 35.6361 22.9091 35.6361C22.5606 35.6361 22.2124 35.4943 21.9594 35.2108L18.5772 31.3964C18.0944 30.855 17.4016 30.5355 16.6775 30.5813ZM17.8182 38.1818C18.521 38.1818 19.0909 38.7517 19.0909 39.4545V42.0003H21.6364C22.3392 42.0003 22.9091 42.5699 22.9091 43.273V45.8184C22.9091 46.5212 22.3392 47.0912 21.6364 47.0912H19.0909V49.6364C19.0909 50.3392 18.521 50.9091 17.8182 50.9091H15.2727C14.5698 50.9091 14 50.3392 14 49.6364L14 47.0912H11.4545C10.7516 47.0912 10.1818 46.5212 10.1818 45.8184V43.273C10.1818 42.5702 10.7516 42.0003 11.4545 42.0003H14V39.4545C14 38.7517 14.5698 38.1818 15.2727 38.1818H17.8182Z" fill="#3498DB"/>
</svg>
