<svg width="102" height="101" viewBox="0 0 102 101" fill="none" xmlns="http://www.w3.org/2000/svg">
<path fill-rule="evenodd" clip-rule="evenodd" d="M49.1814 100.635H53.375H54.436C76.5392 100.633 87.6603 100.525 94.5944 93.5905C101.596 86.5464 101.596 75.1403 101.596 52.4142V48.137C101.596 25.4929 101.596 14.0888 94.5934 7.04442C87.6606 0.109955 76.4994 0.00166095 54.4343 0H53.3753H49.1818H48.1208C26.0175 0.00166095 14.8984 0.109955 7.96398 7.04442C1.56235 13.4833 1.01226 23.5682 0.965088 42.61V58.0894C1.01259 77.068 1.56568 87.152 8.00485 93.5905C14.9396 100.525 26.0999 100.633 48.1247 100.635H49.1818H49.1814Z" fill="#F2F5F8"/>
</svg>
