<svg style="display: none;" aria-hidden="true" xmlns="http://www.w3.org/2000/svg" xmlns:xlink="http://www.w3.org/1999/xlink"><symbol viewBox="0 0 13 17" id="arr_l"><path d="M12.317 2.895 6.274 8.5l6.043 5.605-2.598 2.831L.639 8.5 9.72.092l2.598 2.803Z"/></symbol><symbol viewBox="0 0 13 17" id="arr_r"><path d="M.683 14.105 6.726 8.5.683 2.895 3.281.063l9.08 8.437-9.08 8.408-2.598-2.803Z"/></symbol><symbol viewBox="0 0 43 38" id="blanks"><path clip-rule="evenodd" d="m24.857 16.2-5.19-5.192v-6.53c0-1.104.895-2 2-2h8.479v5.24a4.48 4.48 0 0 0 4.479 4.479h5.239v14.958c0 1.104-.896 2-2 2H25.417v-4h9.208a1.24 1.24 0 0 0 0-2.479h-9.208v-4.001h9.208a1.24 1.24 0 0 0 0-2.477H24.857v.001Zm-7.67-7.671-1.776-1.777a1.344 1.344 0 0 0-.286-.21l-.12.018-.114-.063a1.159 1.159 0 0 0-.376-.13H4.742a4.48 4.48 0 0 0-4.48 4.478v22.677A4.48 4.48 0 0 0 4.742 38h16.197a4.48 4.48 0 0 0 4.479-4.478v-1.889h12.447a4.48 4.48 0 0 0 4.479-4.479V10.881a1.407 1.407 0 0 0-.077-.317l-.025-.066v-.134a1.137 1.137 0 0 0-.193-.267L32.338.385a1.358 1.358 0 0 0-.287-.21l-.12.018-.114-.063a1.163 1.163 0 0 0-.376-.13h-9.774a4.48 4.48 0 0 0-4.48 4.479v4.05Zm15.437-4.303 5.491 5.492h-3.49a2 2 0 0 1-2-2V4.226Zm-7.718 7.97h1.62a1.24 1.24 0 0 0 0-2.478h-1.62a1.24 1.24 0 0 0 0 2.479Zm-9.208-1.603 5.49 5.492h-3.49a2 2 0 0 1-2-2v-3.492Zm7.24 22.929c0 1.104-.896 2-2 2H4.74c-1.105 0-2-.896-2-2V10.846c0-1.105.895-2.001 2-2.001h8.48v5.24a4.48 4.48 0 0 0 4.478 4.479h5.24v14.958h-.001ZM7.98 18.564H9.6a1.24 1.24 0 0 0 0-2.479H7.98a1.24 1.24 0 0 0 0 2.479Zm0 4.001a1.239 1.239 0 0 0 0 2.477H17.7a1.24 1.24 0 0 0 0-2.477H7.98Zm9.719 6.478H7.98a1.239 1.239 0 0 0 0 2.478H17.7a1.24 1.24 0 0 0 0-2.478Z"/></symbol><symbol viewBox="0 0 18 20" id="document"><path d="m17.048 14.423-2.227-2.227a.907.907 0 0 0-.658-.274.906.906 0 0 0-.654.274l-3.299 3.298a.921.921 0 0 0-.269.654v2.233c0 .509.413.922.922.922h2.233c.246 0 .48-.096.654-.27l3.298-3.298a.907.907 0 0 0 .274-.654.908.908 0 0 0-.274-.658Zm-4.34 3.035h-.923v-.921l2.377-2.378.923.922-2.378 2.378Zm-5.533 0H3.487a.922.922 0 0 1-.922-.921V3.628c0-.51.412-.922.922-.922h4.61v2.766a2.767 2.767 0 0 0 2.766 2.766h2.766v.922a.922.922 0 1 0 1.844 0V7.258a1.027 1.027 0 0 0-.058-.244v-.086a.887.887 0 0 0-.173-.255L9.71 1.141a.944.944 0 0 0-.258-.178.244.244 0 0 0-.083 0L9.076.862h-5.59A2.767 2.767 0 0 0 .72 3.628v12.909a2.767 2.767 0 0 0 2.767 2.766h3.688a.922.922 0 0 0 0-1.844ZM9.94 4.008l2.386 2.386h-1.464a.922.922 0 0 1-.922-.922V4.008Zm-4.61 7.918h5.532a.922.922 0 0 0 0-1.843H5.331a.922.922 0 0 0 0 1.843Zm0-3.688h.922a.922.922 0 1 0 0-1.844H5.33a.922.922 0 0 0 0 1.844Zm1.844 5.532H5.33a.922.922 0 0 0 0 1.844h1.844a.922.922 0 0 0 0-1.844Z"/></symbol><symbol viewBox="0 0 16 19" id="pdf"><path d="M9.07 6.287h5.029l-5.03-5.03v5.03ZM2.52 0h7.335l5.5 5.532v11.065c0 1.02-.82 1.845-1.832 1.845H2.52a1.838 1.838 0 0 1-1.833-1.845V1.845C.687.825 1.507 0 2.52 0Zm4.663 9.64c.4.877.904 1.598 1.487 2.095l.4.313c-.846.155-2.014.427-3.247.906l-.107.039.487-1.013c.436-.85.757-1.62.98-2.34Zm5.813 3.558a.879.879 0 0 0 .255-.603.726.726 0 0 0-.108-.501c-.265-.43-.95-.631-2.08-.631l-1.177.065-.795-.53c-.576-.474-1.096-1.306-1.46-2.336l.037-.129c.3-1.213.583-2.683-.02-3.285a.777.777 0 0 0-.557-.218h-.218c-.338 0-.64.356-.72.703-.339 1.214-.138 1.879.2 2.984v.008c-.229.804-.521 1.734-.986 2.674l-.875 1.644-.813.446c-1.095.684-1.615 1.451-1.715 1.936a.836.836 0 0 0 .044.493l.028.044.438.283.403.101c.737 0 1.578-.867 2.709-2.801l.165-.065c.939-.301 2.107-.51 3.679-.684.938.465 2.043.675 2.737.675.402 0 .674-.1.83-.273h-.001Zm-.24-.751.085.094c-.009.083-.037.092-.085.11h-.037l-.18.014c-.434 0-1.104-.159-1.793-.427.084-.083.122-.083.216-.083 1.323 0 1.7.21 1.794.292ZM4.46 13.831c-.644.998-1.231 1.55-1.677 1.677.05-.319.496-.871 1.2-1.417l.477-.26ZM7.13 7.544c-.193-.869-.203-1.573-.058-1.98l.058-.115.125.048c.142.231.16.542.077 1.063l-.026.155-.134.79-.042.04Z"/></symbol><symbol viewBox="0 0 31 33" id="personal"><path d="m20.945 18.168-.008-.003c-.095-.04-.187-.087-.284-.125a9.037 9.037 0 0 0 3.463-7.108 7.998 7.998 0 0 0-.068-.951c.023-.06.042-.122.057-.184l.424-3.618a4.537 4.537 0 0 0-3.685-4.983L19.65.98a25.552 25.552 0 0 0-9.18 0l-1.194.216a4.537 4.537 0 0 0-3.685 4.983l.422 3.618c.016.062.036.124.06.184a7.984 7.984 0 0 0-.069.95 9.037 9.037 0 0 0 3.462 7.109c-.096.038-.188.084-.283.125l-.008.003a15.013 15.013 0 0 0-9.108 12.22 1.51 1.51 0 0 0 3 .327 11.995 11.995 0 0 1 6.363-9.334l4.563 4.562a1.509 1.509 0 0 0 2.133 0l4.563-4.562a11.995 11.995 0 0 1 6.362 9.334 1.51 1.51 0 1 0 3-.327 15.015 15.015 0 0 0-9.109-12.22h.002ZM8.589 5.826a1.512 1.512 0 0 1 1.229-1.66l1.192-.216c2.678-.49 5.423-.49 8.101 0l1.192.216a1.512 1.512 0 0 1 1.229 1.66l-.269 2.285H8.858l-.269-2.285Zm6.471 16.918-2.49-2.492a11.846 11.846 0 0 1 4.98 0l-2.49 2.492Zm0-5.774a6.044 6.044 0 0 1-6.033-5.84h12.067a6.044 6.044 0 0 1-6.034 5.84Z"/></symbol><symbol viewBox="0 0 13 14" id="phone"><path d="M.576 2.404A1.461 1.461 0 0 1 2.036.94h1.958c.744 0 1.367.554 1.45 1.29.049.433.138.863.265 1.279.158.52.02 1.08-.36 1.46l-.794.795a9.16 9.16 0 0 0 3.619 3.62l.794-.794c.381-.381.942-.52 1.46-.36a7.07 7.07 0 0 0 1.28.265c.735.082 1.29.705 1.29 1.45v1.958a1.463 1.463 0 0 1-1.597 1.453 11.88 11.88 0 0 1-4.034-1.107A11.99 11.99 0 0 1 4.04 9.899a11.98 11.98 0 0 1-2.35-3.327A11.886 11.886 0 0 1 .58 2.538a1.387 1.387 0 0 1-.006-.134Z"/></symbol><symbol viewBox="0 0 30 30" id="time"><path d="M15 6a1.5 1.5 0 0 0-1.5 1.5v6.576L9.854 15.91a1.5 1.5 0 1 0 1.348 2.68l4.472-2.25A1.498 1.498 0 0 0 16.5 15V7.5A1.498 1.498 0 0 0 15 6Zm0-6a15 15 0 1 0 15 15A15.017 15.017 0 0 0 15 0Zm0 27a12 12 0 1 1 12-12 12.014 12.014 0 0 1-12 12Z"/></symbol><symbol viewBox="0 0 13 12" id="up_arrow"><path d="m.468 5.833 5.8-5.8 5.804 5.804-1.444 1.436L7.29 3.936v7.345H5.248V3.94L1.911 7.277.468 5.833Z"/></symbol></svg>