<svg width="43" height="38" viewBox="0 0 43 38" fill="none" xmlns="http://www.w3.org/2000/svg">
<path fill-rule="evenodd" clip-rule="evenodd" d="M24.857 16.1991L19.6661 11.0076V4.47849C19.6661 3.37392 20.5621 2.47771 21.6665 2.47771H30.146V7.71843C30.146 10.191 32.1519 12.1967 34.6246 12.1967H39.864V27.1547C39.864 28.2588 38.9677 29.1551 37.8635 29.1551H25.4168V25.1541H34.6249C35.3085 25.1541 35.8638 24.599 35.8638 23.9151C35.8638 23.2313 35.3085 22.6762 34.6249 22.6762H25.4168V18.6746H34.6249C35.3085 18.6746 35.8638 18.1193 35.8638 17.4361C35.8638 16.7524 35.3085 16.1977 34.6249 16.1977H24.9064L24.8571 16.1989L24.857 16.1991ZM17.1874 8.52892L15.4113 6.75243C15.3252 6.67128 15.23 6.59711 15.1252 6.54129L15.0059 6.56023L14.8915 6.49702C14.7733 6.43163 14.6479 6.38836 14.5155 6.36663H4.74086C2.26833 6.36663 0.261719 8.373 0.261719 10.8455V33.5217C0.261719 35.9942 2.26833 38 4.74086 38H20.9377C23.4103 38 25.4168 35.9946 25.4168 33.5217V31.6332H37.8635C40.3361 31.6332 42.3427 29.6278 42.3427 27.1545V10.957C42.3427 10.9315 42.3427 10.9059 42.3427 10.8806C42.3285 10.7745 42.3048 10.6625 42.2665 10.564L42.2408 10.4976V10.3644C42.189 10.2671 42.1245 10.1738 42.048 10.097L32.3371 0.385403C32.251 0.304654 32.1559 0.230086 32.0511 0.174259L31.9318 0.1932L31.8173 0.129996C31.6991 0.0649982 31.5737 0.0215331 31.4413 0H21.6667C19.1941 0 17.1876 2.00597 17.1876 4.47869V8.52911L17.1874 8.52892ZM32.6243 4.22628L38.115 9.71822H34.6246C33.5205 9.71822 32.6243 8.8228 32.6243 7.71843V4.22628ZM24.9062 12.1967H26.526C27.2103 12.1967 27.7649 11.6414 27.7649 10.9572C27.7649 10.2733 27.2099 9.71822 26.526 9.71822H24.9062C24.2223 9.71822 23.6672 10.2733 23.6672 10.9572C23.6672 11.6414 24.2219 12.1967 24.9062 12.1967ZM15.6982 10.5931L21.1889 16.0851H17.6986C16.5944 16.0851 15.6982 15.19 15.6982 14.0855V10.5931ZM22.9379 33.5217C22.9379 34.6259 22.0417 35.5221 20.9375 35.5221H4.74062C3.63645 35.5221 2.74027 34.6259 2.74027 33.5217V10.8455C2.74027 9.74095 3.63625 8.84473 4.74062 8.84473H13.2201V14.0855C13.2201 16.558 15.2261 18.5636 17.6988 18.5636H22.9381V33.5217H22.9379ZM7.98017 18.5636H9.59991C10.2842 18.5636 10.8389 18.0085 10.8389 17.3244C10.8389 16.6405 10.2838 16.0853 9.59991 16.0853H7.98017C7.2963 16.0853 6.74121 16.6405 6.74121 17.3244C6.74121 18.0087 7.2959 18.5636 7.98017 18.5636ZM7.98017 22.5651C7.2963 22.5651 6.74121 23.1196 6.74121 23.8035C6.74121 24.4872 7.2963 25.0418 7.98017 25.0418H17.6986C18.3823 25.0418 18.9376 24.4868 18.9376 23.8035C18.9376 23.1198 18.3823 22.5651 17.6986 22.5651H7.98017ZM17.6986 29.0432H7.98017C7.2959 29.0432 6.74121 29.5979 6.74121 30.2822C6.74121 30.9666 7.2959 31.5213 7.98017 31.5213H17.6986C18.3823 31.5213 18.9376 30.966 18.9376 30.2822C18.9376 29.5985 18.3823 29.0432 17.6986 29.0432Z" fill="#3498DB"/>
</svg>
