<svg width="18" height="20" viewBox="0 0 18 20" fill="none" xmlns="http://www.w3.org/2000/svg">
<path d="M17.048 14.4228L14.8206 12.1958C14.647 12.0169 14.4125 11.9215 14.1626 11.9215C13.9171 11.9215 13.6822 12.0169 13.5086 12.1958L10.2104 15.494C10.0368 15.6673 9.94113 15.9021 9.94113 16.148V18.3807C9.94113 18.8895 10.3543 19.3027 10.8631 19.3027H13.0957C13.342 19.3027 13.5765 19.207 13.7498 19.0334L17.048 15.7352C17.2266 15.5616 17.3223 15.3267 17.3223 15.0812C17.3223 14.831 17.2266 14.5965 17.048 14.4232V14.4228ZM12.7071 17.4584H11.7847V16.5367L14.1623 14.1589L15.0846 15.0812L12.7071 17.4587V17.4584ZM7.17489 17.4584H3.48665C2.97749 17.4584 2.56465 17.0452 2.56465 16.5367V3.62808C2.56465 3.11892 2.97749 2.70577 3.48665 2.70577H8.09682V5.47203C8.09682 6.99918 9.33564 8.23796 10.8631 8.23796H13.6294V9.15994C13.6294 9.6691 14.0422 10.0822 14.5514 10.0822C15.0605 10.0822 15.4733 9.6691 15.4733 9.15994V7.31599C15.4733 7.31599 15.4733 7.31598 15.4733 7.25844C15.4636 7.17749 15.4452 7.08984 15.4154 7.01357V6.92759C15.3726 6.83559 15.3147 6.74493 15.2421 6.67301L9.70996 1.14115C9.63369 1.06856 9.54768 1.00634 9.45201 0.962846C9.42692 0.958163 9.39919 0.958163 9.36942 0.962846L9.07637 0.861816H3.48665C1.9595 0.861816 0.720337 2.10126 0.720337 3.62808V16.5367C0.720337 18.0636 1.95983 19.3027 3.48665 19.3027H7.17489C7.68371 19.3027 8.09682 18.8895 8.09682 18.3807C8.09682 17.8719 7.68371 17.4587 7.17489 17.4587V17.4584ZM9.94113 4.00778L12.3274 6.39401H10.8631C10.3543 6.39401 9.94113 5.98086 9.94113 5.47236V4.00778ZM5.3309 11.9262H10.8631C11.372 11.9262 11.7847 11.513 11.7847 11.0046C11.7847 10.4954 11.372 10.0826 10.8631 10.0826H5.3309C4.82207 10.0826 4.4089 10.4954 4.4089 11.0046C4.4089 11.513 4.82207 11.9262 5.3309 11.9262ZM5.3309 8.23796H6.25257C6.76173 8.23796 7.17489 7.82515 7.17489 7.31599C7.17489 6.80683 6.76173 6.39401 6.25257 6.39401H5.3309C4.82207 6.39401 4.4089 6.80683 4.4089 7.31599C4.4089 7.82515 4.82207 8.23796 5.3309 8.23796ZM7.17489 13.7702H5.3309C4.82207 13.7702 4.4089 14.1833 4.4089 14.6921C4.4089 15.2013 4.82207 15.6141 5.3309 15.6141H7.17489C7.68371 15.6141 8.09682 15.2013 8.09682 14.6921C8.09682 14.1833 7.68371 13.7702 7.17489 13.7702Z" fill="white"/>
</svg>
