<svg width="16" height="19" viewBox="0 0 16 19" fill="none" xmlns="http://www.w3.org/2000/svg">
<path d="M9.0692 6.2869H14.0989L9.0692 1.25718V6.2869ZM2.52004 0H9.8547L15.3558 5.53152V16.5966C15.3558 17.6162 14.5348 18.4415 13.5225 18.4415H2.52004C1.50306 18.4415 0.686768 17.6122 0.686768 16.5966V1.84496C0.686768 0.825296 1.50774 0 2.52004 0ZM7.18307 9.63994C7.5825 10.5171 8.08663 11.2377 8.66972 11.7355L9.0692 12.0476C8.22383 12.2025 7.05628 12.4751 5.82285 12.9538L5.71582 12.9926L6.20253 11.98C6.63876 11.1306 6.96028 10.3599 7.18274 9.6396L7.18307 9.63994ZM12.9959 13.198C13.1619 13.0318 13.2428 12.8224 13.2515 12.5955C13.28 12.4122 13.2338 12.2393 13.1425 12.0937C12.8782 11.6632 12.1931 11.4628 11.0624 11.4628L9.8858 11.528L9.09129 10.9978C8.51488 10.5241 7.99534 9.69246 7.63103 8.66176L7.66782 8.5333C7.9689 7.31961 8.25092 5.85033 7.64808 5.24817C7.50189 5.10165 7.30115 5.02972 7.0914 5.02972H6.87297C6.53476 5.02972 6.23364 5.386 6.15235 5.73258C5.81447 6.9466 6.01524 7.61199 6.35379 8.71696V8.72532C6.12396 9.52887 5.83192 10.4585 5.36691 11.3993L4.49177 13.0432L3.67915 13.4888C2.58388 14.1735 2.06404 14.94 1.96368 15.425C1.92722 15.597 1.9443 15.7522 2.00752 15.9178L2.03595 15.9616L2.4745 16.2453L2.87659 16.346C3.61391 16.346 4.45461 15.4792 5.58567 13.545L5.7513 13.4797C6.69 13.1786 7.85783 12.9692 9.42981 12.7963C10.3682 13.2613 11.4728 13.471 12.167 13.471C12.5688 13.471 12.8414 13.371 12.9963 13.1984L12.9959 13.198ZM12.7561 12.447L12.8411 12.5407C12.8324 12.624 12.8042 12.6327 12.7561 12.6504H12.7186L12.5397 12.6655C12.1054 12.6655 11.435 12.5062 10.7455 12.2376C10.8302 12.155 10.868 12.155 10.962 12.155C12.2847 12.155 12.6627 12.3644 12.7561 12.4473V12.447ZM4.45864 13.8313C3.815 14.8289 3.22758 15.3809 2.78231 15.5077C2.83249 15.1892 3.27805 14.6365 3.98258 14.0912L4.45864 13.8317V13.8313ZM7.13021 7.54442C6.93651 6.6753 6.92748 5.97077 7.07167 5.56464L7.13021 5.44889L7.25501 5.49673C7.39718 5.72823 7.41421 6.03868 7.33158 6.55955L7.30551 6.71477L7.17203 7.50527L7.13021 7.54408V7.54442Z" fill="white"/>
</svg>
