<svg width="31" height="33" viewBox="0 0 31 33" fill="none" xmlns="http://www.w3.org/2000/svg">
<path d="M20.9447 18.1681L20.9372 18.1651C20.8421 18.1243 20.75 18.0775 20.6534 18.0398C21.7315 17.1948 22.6033 16.1158 23.2031 14.8844C23.8028 13.653 24.1148 12.3013 24.1155 10.9316C24.1118 10.6136 24.0891 10.2961 24.0476 9.98083C24.0708 9.92082 24.09 9.8593 24.1049 9.79671L24.529 6.17922C24.6613 5.03607 24.3542 3.88534 23.67 2.96009C22.9857 2.03484 21.9754 1.40422 20.8436 1.19594L19.6513 0.980123C16.6163 0.425896 13.506 0.425896 10.471 0.980123L9.27729 1.19594C8.1455 1.40422 7.13517 2.03484 6.4509 2.96009C5.76663 3.88534 5.45956 5.03607 5.59189 6.17922L6.01445 9.79671C6.02989 9.85934 6.04956 9.92086 6.07331 9.98083C6.03176 10.2961 6.00908 10.6136 6.0054 10.9316C6.00604 12.3013 6.31804 13.653 6.9178 14.8844C7.51757 16.1158 8.38941 17.1948 9.46744 18.0398C9.37085 18.0775 9.2788 18.1243 9.18372 18.1651L9.17617 18.1681C6.70555 19.2066 4.55796 20.8875 2.95637 23.0363C1.35478 25.1851 0.357585 27.7235 0.0683151 30.3879C0.0307398 30.7827 0.150119 31.1765 0.40063 31.484C0.651141 31.7915 1.01264 31.9881 1.40694 32.0311C1.80124 32.0741 2.19662 31.9602 2.50758 31.714C2.81853 31.4678 3.02005 31.109 3.06855 30.7153C3.28093 28.7566 3.97254 26.8803 5.08226 25.2523C6.19198 23.6243 7.68564 22.2948 9.43122 21.3811L13.9935 25.9433C14.2765 26.2263 14.6603 26.3852 15.0604 26.3852C15.4606 26.3852 15.8444 26.2263 16.1274 25.9433L20.6896 21.3811C22.4352 22.2948 23.9289 23.6243 25.0386 25.2523C26.1483 26.8803 26.8399 28.7566 27.0523 30.7153C27.0924 31.0847 27.2674 31.4262 27.5436 31.6746C27.8198 31.923 28.1779 32.0607 28.5494 32.0615C28.6049 32.0614 28.6603 32.0584 28.7154 32.0525C28.9126 32.0311 29.1035 31.971 29.2774 31.8757C29.4513 31.7804 29.6048 31.6518 29.7289 31.4973C29.8531 31.3427 29.9456 31.1651 30.0011 30.9748C30.0567 30.7844 30.0741 30.585 30.0526 30.3879C29.7631 27.7233 28.7657 25.1849 27.1639 23.036C25.562 20.8872 23.4141 19.2064 20.9432 18.1681H20.9447ZM8.5891 5.82608C8.54527 5.44519 8.64775 5.06186 8.87582 4.75367C9.10388 4.44547 9.4405 4.23541 9.81757 4.16599L11.0098 3.95017C13.6881 3.46073 16.4328 3.46073 19.1111 3.95017L20.3033 4.16599C20.6804 4.23541 21.017 4.44547 21.2451 4.75367C21.4731 5.06186 21.5756 5.44519 21.5318 5.82608L21.2631 8.11096H8.85774L8.5891 5.82608ZM15.0604 22.7439L12.5703 20.2523C14.2116 19.8994 15.9092 19.8994 17.5506 20.2523L15.0604 22.7439ZM15.0604 16.9698C13.4939 16.968 11.9893 16.358 10.8637 15.2685C9.73816 14.1789 9.07957 12.6949 9.02676 11.1293H21.0941C21.0413 12.6949 20.3827 14.1789 19.2571 15.2685C18.1316 16.358 16.627 16.968 15.0604 16.9698Z" fill="#3498DB"/>
</svg>
