<svg width="13" height="14" viewBox="0 0 13 14" fill="none" xmlns="http://www.w3.org/2000/svg">
<path d="M0.575766 2.40368C0.575766 2.04004 0.71125 1.68577 0.957802 1.4158C1.23346 1.11372 1.62584 0.94043 2.03498 0.94043H3.99403C4.7377 0.94043 5.36094 1.49542 5.44357 2.2314C5.49274 2.66428 5.58173 3.09416 5.70851 3.50965C5.86742 4.02952 5.72961 4.58919 5.34824 4.97056L4.5547 5.76475C5.38635 7.28487 6.65422 8.55275 8.17368 9.38474L8.96787 8.59056C9.34924 8.20952 9.90958 8.07136 10.4288 8.2306C10.8443 8.35772 11.2742 8.44704 11.7074 8.49555C12.443 8.57818 12.998 9.20142 12.998 9.94509V11.9038C12.998 12.3129 12.8247 12.7053 12.5229 12.9813C12.2195 13.258 11.8104 13.3951 11.401 13.357C9.99491 13.2279 8.63771 12.8552 7.36681 12.25C6.13104 11.6612 5.01132 10.8701 4.03983 9.89892C3.06834 8.9271 2.27752 7.80775 1.68907 6.57198C1.08357 5.30075 0.710915 3.94354 0.581451 2.53783C0.577102 2.493 0.575439 2.44818 0.575439 2.40402L0.575766 2.40368Z" fill="#3498DB"/>
</svg>
