<svg width="30" height="30" viewBox="0 0 30 30" fill="none" xmlns="http://www.w3.org/2000/svg">
<path d="M15 6C14.803 5.99995 14.6079 6.03871 14.4259 6.11407C14.2439 6.18944 14.0785 6.29993 13.9392 6.43922C13.7999 6.57852 13.6894 6.7439 13.6141 6.92591C13.5387 7.10792 13.5 7.303 13.5 7.5V14.0757L9.85401 15.9104C9.67809 15.9989 9.52133 16.1211 9.39266 16.2702C9.264 16.4193 9.16595 16.5923 9.10413 16.7792C9.0423 16.9662 9.01791 17.1635 9.03234 17.3599C9.04677 17.5563 9.09975 17.7479 9.18823 17.9238C9.27672 18.0997 9.39899 18.2565 9.54806 18.3852C9.69714 18.5138 9.87009 18.6119 10.0571 18.6737C10.244 18.7355 10.4413 18.7599 10.6377 18.7455C10.8341 18.7311 11.0257 18.6781 11.2017 18.5896L15.6738 16.3396C15.9223 16.2149 16.1311 16.0236 16.277 15.787C16.4229 15.5505 16.5001 15.2779 16.5 15V7.5C16.5001 7.303 16.4613 7.10792 16.3859 6.92591C16.3106 6.7439 16.2001 6.57852 16.0608 6.43922C15.9215 6.29993 15.7561 6.18944 15.5741 6.11407C15.3921 6.03871 15.197 5.99995 15 6ZM15 0C12.0333 0 9.13319 0.879735 6.66645 2.52796C4.19972 4.17618 2.27713 6.51885 1.14181 9.25975C0.00649929 12.0006 -0.290551 15.0166 0.288228 17.9263C0.867006 20.8361 2.29562 23.5088 4.3934 25.6066C6.49119 27.7044 9.16394 29.133 12.0737 29.7118C14.9834 30.2906 17.9994 29.9935 20.7403 28.8582C23.4811 27.7229 25.8238 25.8003 27.472 23.3335C29.1203 20.8668 30 17.9667 30 15C29.9955 11.0231 28.4136 7.21048 25.6016 4.39842C22.7895 1.58636 18.9769 0.00454965 15 0ZM15 27C12.6266 27 10.3066 26.2962 8.33316 24.9776C6.35977 23.6591 4.8217 21.7849 3.91345 19.5922C3.0052 17.3995 2.76756 14.9867 3.23058 12.6589C3.69361 10.3311 4.83649 8.19295 6.51472 6.51472C8.19295 4.83649 10.3312 3.6936 12.6589 3.23058C14.9867 2.76755 17.3995 3.00519 19.5922 3.91344C21.7849 4.8217 23.6591 6.35977 24.9776 8.33315C26.2962 10.3065 27 12.6266 27 15C26.9964 18.1815 25.7309 21.2316 23.4813 23.4813C21.2316 25.7309 18.1815 26.9964 15 27Z" fill="#3498DB"/>
</svg>
