<svg width="113" height="113" viewBox="0 0 113 113" fill="none" xmlns="http://www.w3.org/2000/svg">
<path fill-rule="evenodd" clip-rule="evenodd" d="M53.8185 112.327H58.4992H59.6832C84.3547 112.325 96.7674 112.204 104.507 104.464C112.323 96.6012 112.323 83.8704 112.323 58.5037V53.7297C112.323 28.4548 112.323 15.7257 104.506 7.863C96.7674 0.122766 84.3099 0.00198467 59.6812 0H58.4992H53.8185H52.6345C27.9633 0.00198467 15.5526 0.122766 7.81233 7.863C0.667217 15.0501 0.0531019 26.3063 0.000366211 47.5605V64.8382C0.0533854 86.0218 0.670903 97.2771 7.85798 104.464C15.5985 112.204 28.0552 112.325 52.6388 112.327H53.8185Z" fill="#3498DB"/>
</svg>
