<svg width="45" height="44" viewBox="0 0 45 44" fill="none" xmlns="http://www.w3.org/2000/svg">
<path d="M38.8388 27.7318C38.8388 24.4205 37.2814 21.2975 34.6293 19.3136V13.5924L30.1457 12.0914L32.2503 7.88277L27.1318 2.72914L22.9232 4.83375L21.4103 0.373047H14.1759L12.6749 4.85699L8.46624 2.75211L3.31345 7.87087L5.41749 12.0795L0.956787 13.5924V20.8265L5.44044 22.327L3.33671 26.5362L8.46624 31.666L12.6749 29.5611L14.1759 34.0459H19.8974C23.2311 38.4621 29.4241 39.5485 34.06 36.5123L41.513 43.9537L44.4847 40.9962L37.0291 33.5406C38.193 31.8211 38.8164 29.8029 38.8388 27.7318ZM17.2008 29.8364L15.6887 25.4837L14.8433 25.1004L14.1988 24.8506L13.3321 24.5302L9.37465 26.5481L8.53003 25.7145L10.175 22.4253L10.4271 21.4185L10.1104 20.5736C10.1104 20.4115 9.98961 20.2229 9.902 20.0494L9.54023 19.3136L5.166 17.8008V16.6173L9.54023 15.1044L9.92185 14.2595C9.92185 14.0744 10.065 13.9088 10.175 13.6154L10.4914 12.7483L8.45433 8.79119L9.28788 7.94543L12.5762 9.59129L13.5841 9.84335L14.4288 9.52693L14.9984 9.31854L15.6887 8.93493L17.2008 4.58169H18.3853L19.8974 8.93493L20.7429 9.31854L21.4103 9.56833L22.2773 9.88786L26.3547 7.78411L27.1984 8.62561L25.5546 11.9029L25.159 13.0004L25.4757 13.8453C25.4757 14.0075 25.5965 14.196 25.6841 14.3693L26.0675 15.2142L30.4207 16.6173V17.4166C26.9574 16.7151 23.3709 17.7906 20.8741 20.2904C18.374 22.7874 17.2986 26.374 18.0003 29.8364H17.2008ZM22.002 27.7318C22.002 24.2461 24.8307 21.4185 28.3161 21.4185C31.8017 21.4185 34.6293 24.2461 34.6293 27.7318C34.6293 31.218 31.8017 34.0459 28.3161 34.0459C24.8307 34.0459 22.002 31.218 22.002 27.7318Z" fill="white"/>
<path d="M15.6887 19.3137H19.8974V15.1045H15.6887V19.3137Z" fill="white"/>
</svg>
