<svg width="44" height="44" viewBox="0 0 44 44" fill="none" xmlns="http://www.w3.org/2000/svg">
<path d="M22.1615 0.625977C28.1087 0.625977 33.4934 3.03707 37.3907 6.93441C41.2881 10.8317 43.6992 16.2164 43.6992 22.1637C43.6992 28.1112 41.2881 33.4956 37.3907 37.3929C33.4934 41.2905 28.1084 43.7014 22.1615 43.7014C16.214 43.7014 10.8295 41.2905 6.93221 37.3929C3.03459 33.4956 0.623779 28.1112 0.623779 22.1637C0.623779 16.2167 3.03459 10.8317 6.93221 6.93441C10.8295 3.03707 16.214 0.625977 22.1615 0.625977ZM34.6865 9.63867C31.4815 6.4337 27.0528 4.45073 22.1615 4.45073C17.2701 4.45073 12.8414 6.4337 9.63647 9.63867C6.43122 12.8436 4.44853 17.2723 4.44853 22.1637C4.44853 27.055 6.43122 31.4837 9.63647 34.6887C12.8414 37.8939 17.2701 39.8766 22.1615 39.8766C27.0528 39.8766 31.4815 37.8939 34.6865 34.6887C37.8914 31.4837 39.8744 27.055 39.8744 22.1637C39.8744 17.2723 37.8914 12.8436 34.6865 9.63867ZM20.6063 8.55617H23.7163C24.993 8.55617 26.1535 9.07757 26.9924 9.91652C27.8317 10.7558 28.3531 11.9157 28.3531 13.1927V15.972H31.1325C32.4095 15.972 33.5694 16.4934 34.4086 17.3327C35.2476 18.1716 35.769 19.3321 35.769 20.6088V23.7188C35.769 24.9958 35.2476 26.1557 34.4083 26.9949C33.5694 27.8339 32.4095 28.3553 31.1325 28.3553H28.3531V31.1347C28.3531 32.4117 27.8317 33.5716 26.9924 34.4108C26.1535 35.2498 24.993 35.7712 23.7163 35.7712H20.6063C19.3344 35.7712 18.1771 35.2498 17.3376 34.4108L17.3302 34.4034C16.4913 33.5639 15.9698 32.4066 15.9698 31.1347V28.3553H13.1905C11.9186 28.3553 10.7612 27.8339 9.92169 26.9949L9.91432 26.9876C9.07537 26.148 8.55397 24.9907 8.55397 23.7188V20.6088C8.55397 19.3321 9.07537 18.1716 9.91432 17.3327C10.7536 16.4934 11.9135 15.972 13.1905 15.972H15.9698V13.1927C15.9698 11.9157 16.4913 10.7558 17.3302 9.9168C18.1694 9.07757 19.3293 8.55617 20.6063 8.55617ZM23.7163 12.3809H20.6063C20.3852 12.3809 20.1825 12.4731 20.0345 12.6211C19.8867 12.7688 19.7946 12.9715 19.7946 13.1927V19.7968H13.1905C12.9693 19.7968 12.7666 19.8889 12.6186 20.0369C12.4709 20.1847 12.3787 20.3877 12.3787 20.6088V23.7188C12.3787 23.9428 12.4694 24.1469 12.6149 24.2944C12.7623 24.4398 12.9665 24.5305 13.1905 24.5305H19.7946V31.1347C19.7946 31.3587 19.8853 31.5628 20.0308 31.7102C20.1782 31.8557 20.3823 31.9464 20.6063 31.9464H23.7163C23.9375 31.9464 24.1405 31.8543 24.2882 31.7065C24.4362 31.5585 24.5283 31.3558 24.5283 31.1347V24.5305H31.1325C31.3536 24.5305 31.5563 24.4384 31.7041 24.2907C31.8521 24.1427 31.9442 23.9399 31.9442 23.7188V20.6088C31.9442 20.3877 31.8521 20.1847 31.7043 20.0369C31.5563 19.8889 31.3536 19.7968 31.1325 19.7968H24.5283V13.1927C24.5283 12.9715 24.4362 12.7688 24.2882 12.6208C24.1405 12.4731 23.9375 12.3809 23.7163 12.3809Z" fill="white"/>
</svg>
