<svg width="39" height="39" viewBox="0 0 39 39" fill="none" xmlns="http://www.w3.org/2000/svg">
<path d="M2.62756 15.339C3.77159 15.339 4.53997 14.5715 4.53997 13.4266V7.69003C4.53997 5.58968 6.26377 3.86528 8.36413 3.86528H14.1013C15.2453 3.86528 16.0137 3.09778 16.0137 1.9529C16.0137 0.808879 15.2453 0.0405273 14.1013 0.0405273H8.36413C4.162 0.0405273 0.71521 3.48819 0.71521 7.69003V13.4266C0.71521 14.5715 1.48269 15.339 2.62756 15.339ZM31.3115 0.0405273H25.575C24.4301 0.0405273 23.6626 0.808879 23.6626 1.9529C23.6626 3.09778 24.4301 3.86528 25.575 3.86528H31.3115C33.4119 3.86528 35.1362 5.58968 35.1362 7.69003V13.4266C35.1362 14.5715 35.9038 15.339 37.0487 15.339C38.1927 15.339 38.961 14.5715 38.961 13.4266V7.69003C38.961 3.48819 35.5134 0.0405273 31.3115 0.0405273ZM37.0487 22.9879C35.9038 22.9879 35.1362 23.7563 35.1362 24.9003V30.6374C35.1362 32.7378 33.4119 34.4616 31.3115 34.4616H25.575C24.4301 34.4616 23.6626 35.2299 23.6626 36.374C23.6626 37.5188 24.4301 38.2863 25.575 38.2863H31.3115C35.5134 38.2863 38.961 34.8395 38.961 30.6374V24.9003C38.961 23.7563 38.1927 22.9879 37.0487 22.9879ZM8.36413 38.2863H14.1013C15.2453 38.2863 16.0137 37.5188 16.0137 36.374C16.0137 35.2299 15.2453 34.4616 14.1013 34.4616H8.36413C6.26377 34.4616 4.53997 32.7378 4.53997 30.6374V24.9003C4.53997 23.7563 3.77159 22.9879 2.62756 22.9879C1.48269 22.9879 0.71521 23.7563 0.71521 24.9003V30.6374C0.71521 34.8395 4.162 38.2863 8.36413 38.2863Z" fill="white"/>
<path d="M17.9255 7.69021C17.9255 6.54618 17.1577 5.77783 16.0137 5.77783H8.36414C7.21983 5.77783 6.45178 6.54618 6.45178 7.69021V15.3391C6.45178 16.4832 7.21983 17.2515 8.36414 17.2515H16.0137C17.1577 17.2515 17.9255 16.4832 17.9255 15.3391V7.69021ZM14.1013 13.4268H10.2765V9.60258H14.1013V13.4268ZM31.3115 32.55C32.4556 32.55 33.2239 31.7819 33.2239 30.6376V22.9881C33.2239 21.8441 32.4556 21.0763 31.3115 21.0763H23.6626C22.5186 21.0763 21.7502 21.8441 21.7502 22.9881V30.6376C21.7502 31.7819 22.5186 32.55 23.6626 32.55H31.3115ZM25.575 24.9005H29.3991V28.7252H25.575V24.9005ZM23.6626 5.77783C22.5186 5.77783 21.7502 6.54618 21.7502 7.69021V13.4268C21.7502 14.5716 22.5186 15.3391 23.6626 15.3391H29.3991C29.3991 16.4832 30.1672 17.2515 31.3115 17.2515C32.4556 17.2515 33.2239 16.4832 33.2239 15.3391V13.4268C33.2239 12.2827 32.4556 11.5144 31.3115 11.5144H25.575V7.69021C25.575 6.54618 24.8066 5.77783 23.6626 5.77783Z" fill="white"/>
<path d="M31.3115 9.60258C32.4556 9.60258 33.2239 8.83451 33.2239 7.69021C33.2239 6.54618 32.4556 5.77783 31.3115 5.77783H29.3991C28.2548 5.77783 27.4873 6.54618 27.4873 7.69021C27.4873 8.83451 28.2548 9.60258 29.3991 9.60258H31.3115ZM10.2765 32.55H14.1013C15.2453 32.55 16.0137 31.7819 16.0137 30.6376C16.0137 29.4927 15.2453 28.7252 14.1013 28.7252H12.1889V22.9881C12.1889 21.8441 11.4206 21.0763 10.2765 21.0763H8.36414C7.21983 21.0763 6.45178 21.8441 6.45178 22.9881C6.45178 24.133 7.21983 24.9005 8.36414 24.9005V30.6376C8.36414 31.7819 9.13252 32.55 10.2765 32.55ZM16.0137 21.0763C14.8688 21.0763 14.1013 21.8441 14.1013 22.9881V24.9005C14.1013 26.0453 14.8688 26.8128 16.0137 26.8128C17.1577 26.8128 17.9255 26.0453 17.9255 24.9005V22.9881C17.9255 21.8441 17.1577 21.0763 16.0137 21.0763Z" fill="white"/>
</svg>
