<svg width="40" height="40" viewBox="0 0 40 40" fill="none" xmlns="http://www.w3.org/2000/svg">
<path d="M20.2793 16.2676C21.3538 16.2676 22.2253 15.396 22.2253 14.3215V8.48371C22.2253 7.40915 21.3538 6.5376 20.2793 6.5376C19.2053 6.5376 18.3331 7.40915 18.3331 8.48371V14.3215C18.3331 15.396 19.2053 16.2676 20.2793 16.2676Z" fill="white"/>
<path d="M22.2253 20.1595C22.2253 21.2332 21.3538 22.1056 20.2793 22.1056C19.2053 22.1056 18.3331 21.2332 18.3331 20.1595C18.3331 19.0849 19.2053 18.2134 20.2793 18.2134C21.3538 18.2134 22.2253 19.0849 22.2253 20.1595Z" fill="white"/>
<path d="M28.9352 24.7911C32.8164 21.5895 34.6199 16.6233 33.6284 11.5454C32.5839 6.33448 28.3974 2.09805 23.2086 1.01385C19.1037 0.151935 14.9189 1.1352 11.7136 3.74051C8.50157 6.34639 6.65697 10.1967 6.65697 14.3214C6.65697 18.3664 8.51208 22.2272 11.6136 24.7911C5.84723 25.8362 0.819458 28.055 0.819458 31.8356C0.819458 37.1857 10.9053 39.6195 20.2792 39.6195C29.6537 39.6195 39.7395 37.1857 39.7395 31.8356C39.7395 28.055 34.7214 25.826 28.9352 24.7911ZM10.5492 14.3214C10.5492 11.3713 11.8665 8.61601 14.1585 6.76034C15.8999 5.34158 18.0609 4.60158 20.2996 4.60158C20.9977 4.60158 21.7096 4.67161 22.4068 4.82471C26.0969 5.59618 29.0676 8.60495 29.8179 12.3052C30.5666 16.166 29.0881 19.9678 25.9565 22.2167C25.9565 22.2167 25.946 22.2167 25.946 22.2272C24.7606 23.0883 23.7669 23.9187 22.9254 24.7602C21.8812 25.7846 20.9874 26.9005 20.2687 28.0766C19.529 26.9388 18.6376 25.8648 17.563 24.8115C17.563 24.8013 17.552 24.8013 17.5415 24.8013C17.5415 24.7911 17.5415 24.7911 17.5313 24.78C16.6518 23.8804 15.6271 22.9987 14.421 22.0851C11.9586 20.2295 10.5492 17.4039 10.5492 14.3214ZM20.2792 35.7272C10.0616 35.7272 4.71172 32.8395 4.71172 31.8356C4.71172 31.0958 8.00654 28.9269 15.383 28.1979C15.5778 28.4009 15.7698 28.6025 15.9302 28.795C16.0728 28.9584 16.2163 29.1194 16.3354 29.2725C16.7119 29.7565 17.0561 30.2336 17.3504 30.7406L18.6161 32.8395C18.962 33.4259 19.5996 33.7817 20.2792 33.7817C20.9594 33.7817 21.5971 33.4259 21.9523 32.8395L23.5123 30.2456C23.7669 29.8092 24.0595 29.3938 24.3838 28.9759C24.4751 28.8651 24.5656 28.7451 24.6671 28.634C24.7884 28.4803 24.9415 28.3272 25.0745 28.1767C32.5235 28.9062 35.8473 31.0854 35.8473 31.8356C35.8473 32.8395 30.4966 35.7272 20.2792 35.7272Z" fill="white"/>
</svg>
